<svg xmlns="http://www.w3.org/2000/svg" viewBox="0 0 100 100">
    <rect width="100" height="100" rx="50" fill="#000000"/>
    <path d="M45.10 63.16L45.10 63.16Q45.10 65.65 44.16 67.84Q43.22 70.03 41.57 71.67Q39.93 73.31 37.75 74.25Q35.56 75.19 33.06 75.19L33.06 75.19L29.58 75.19Q27.08 75.19 24.88 74.25Q22.67 73.31 21.03 71.67Q19.39 70.03 18.45 67.84Q17.51 65.65 17.51 63.16L17.51 63.16L17.51 36.84Q17.51 34.35 18.45 32.16Q19.39 29.97 21.03 28.33Q22.67 26.69 24.88 25.75Q27.08 24.81 29.58 24.81L29.58 24.81L33.06 24.81Q35.56 24.81 37.75 25.75Q39.93 26.69 41.57 28.33Q43.22 29.97 44.16 32.16Q45.10 34.35 45.10 36.84L45.10 36.84L45.10 63.16ZM40.69 63.16L40.69 36.84Q40.69 35.20 40.07 33.78Q39.46 32.36 38.40 31.30Q37.34 30.24 35.92 29.63Q34.50 29.01 32.86 29.01L32.86 29.01L29.78 29.01Q28.14 29.01 26.72 29.63Q25.31 30.24 24.23 31.30Q23.15 32.36 22.54 33.78Q21.92 35.20 21.92 36.84L21.92 36.84L21.92 63.16Q21.92 64.80 22.54 66.22Q23.15 67.64 24.23 68.71Q25.31 69.79 26.72 70.41Q28.14 71.02 29.78 71.02L29.78 71.02L32.86 71.02Q34.50 71.02 35.92 70.41Q37.34 69.79 38.40 68.71Q39.46 67.64 40.07 66.22Q40.69 64.80 40.69 63.16L40.69 63.16ZM82.49 61.69L82.49 63.16Q82.49 65.65 81.48 67.84Q80.47 70.03 78.78 71.67Q77.09 73.31 74.85 74.25Q72.61 75.19 70.11 75.19L70.11 75.19L66.59 75.19Q64.10 75.19 61.86 74.25Q59.62 73.31 57.93 71.67Q56.24 70.03 55.23 67.84Q54.22 65.65 54.22 63.16L54.22 63.16L54.22 61.21L58.63 60.49L58.63 63.16Q58.63 64.80 59.30 66.22Q59.96 67.64 61.09 68.71Q62.22 69.79 63.71 70.41Q65.19 71.02 66.83 71.02L66.83 71.02L69.91 71.02Q71.55 71.02 73.02 70.41Q74.49 69.79 75.62 68.71Q76.75 67.64 77.41 66.22Q78.08 64.80 78.08 63.16L78.08 63.16L78.08 61.69Q78.08 59.16 77.09 57.49Q76.10 55.81 74.46 54.63Q72.81 53.45 70.75 52.63Q68.68 51.81 66.49 50.99Q64.30 50.17 62.24 49.18Q60.17 48.19 58.53 46.70Q56.89 45.21 55.90 43.06Q54.90 40.91 54.90 37.76L54.90 37.76L54.90 36.84Q54.90 34.35 55.84 32.16Q56.78 29.97 58.43 28.33Q60.07 26.69 62.27 25.75Q64.48 24.81 66.97 24.81L66.97 24.81L70.11 24.81Q72.61 24.81 74.80 25.75Q76.98 26.69 78.63 28.33Q80.27 29.97 81.21 32.16Q82.15 34.35 82.15 36.84L82.15 36.84L82.15 38.11L77.74 38.82L77.74 36.84Q77.74 35.20 77.12 33.78Q76.51 32.36 75.45 31.30Q74.39 30.24 72.97 29.63Q71.55 29.01 69.91 29.01L69.91 29.01L67.18 29.01Q65.53 29.01 64.12 29.63Q62.70 30.24 61.62 31.30Q60.54 32.36 59.93 33.78Q59.31 35.20 59.31 36.84L59.31 36.84L59.31 37.76Q59.31 40.12 60.31 41.73Q61.30 43.33 62.94 44.48Q64.58 45.63 66.65 46.46Q68.71 47.30 70.90 48.17Q73.09 49.04 75.16 50.09Q77.22 51.13 78.86 52.65Q80.51 54.17 81.50 56.36Q82.49 58.54 82.49 61.69L82.49 61.69Z" fill="#ffffff"/>
    <style>
        @media (prefers-color-scheme: dark) {
            rect { fill: #ffffff; }
            path { fill: #000000; }
        }
    </style>
</svg>